<svg xmlns="http://www.w3.org/2000/svg" xmlns:xlink="http://www.w3.org/1999/xlink" width="20" height="20" version="1.1" viewBox="0 0 20 20"><title>adress</title><desc>Created with Sketch.</desc><g id="sidebar" fill="none" fill-rule="evenodd" stroke="none" stroke-width="1" transform="translate(-397.000000, -106.000000)"><g id="balance"><g transform="translate(16.000000, 91.000000)"><g id="user" transform="translate(381.000000, 15.000000)"><g id="adress"><rect id="Rectangle-2" width="20" height="20" x="0" y="0" fill="#571430"/><rect id="Rectangle-3" width="3" height="3" x="0" y="0" fill="#80B8EC"/><rect id="Rectangle-3-Copy-4" width="14" height="3" x="3" y="3" fill="#80B8EC"/><rect id="Rectangle-3-Copy-10" width="4" height="4" x="8" y="6" fill="#905DCD"/><rect id="Rectangle-3-Copy-5" width="14" height="3" x="3" y="10" fill="#80B8EC"/><rect id="Rectangle-4" width="4" height="7" x="8" y="13" fill="#80B8EC"/><rect id="Rectangle-3-Copy" width="3" height="3" x="0" y="17" fill="#80B8EC"/><rect id="Rectangle-3-Copy-3" width="3" height="3" x="17" y="0" fill="#80B8EC"/><rect id="Rectangle-3-Copy-2" width="3" height="3" x="17" y="17" fill="#80B8EC"/><rect id="Rectangle-3-Copy-6" width="3" height="3" x="12" y="13" fill="#8F5DCC"/><rect id="Rectangle-3-Copy-7" width="3" height="3" x="5" y="13" fill="#8A5BC3"/><rect id="Rectangle-3-Copy-8" width="3" height="3" x="3" y="0" fill="#8A5BC3"/><rect id="Rectangle-3-Copy-9" width="3" height="3" x="14" y="0" fill="#8A5BC3"/></g></g></g></g></g></svg>